<?xml version="1.0" standalone="no"?>
<!DOCTYPE svg PUBLIC "-//W3C//DTD SVG 20010904//EN"
 "http://www.w3.org/TR/2001/REC-SVG-20010904/DTD/svg10.dtd">
<svg version="1.0" xmlns="http://www.w3.org/2000/svg"
 width="186.000000pt" height="186.000000pt" viewBox="0 0 186.000000 186.000000"
 preserveAspectRatio="xMidYMid meet">
<metadata>
Created by potrace 1.14, written by Peter Selinger 2001-2017
</metadata>
<g transform="translate(0.000000,186.000000) scale(0.100000,-0.100000)"
fill="#000000" stroke="none">
<path d="M910 1740 c-66 -11 -183 -55 -246 -90 -203 -117 -336 -297 -400 -540
-25 -93 -23 -300 3 -397 11 -40 16 -76 12 -80 -14 -16 -219 -405 -219 -416 0
-4 126 -7 280 -7 l280 0 68 -35 c96 -48 144 -64 243 -79 119 -18 225 -12 337
20 236 66 440 255 534 494 44 111 53 166 52 315 -1 121 -5 152 -28 228 -89
298 -307 507 -599 577 -85 21 -229 25 -317 10z"/>
</g>
</svg>
